<svg 
 xmlns="http://www.w3.org/2000/svg"
 xmlns:xlink="http://www.w3.org/1999/xlink"
 width="222px" height="43px">
<path fill-rule="evenodd"  fill="rgb(248, 246, 246)"
 d="M219.517,17.296 L218.286,12.944 L212.434,12.944 L211.225,17.296 L208.887,17.296 L214.0,0.590 L216.742,0.590 L221.856,17.296 L219.517,17.296 ZM215.365,2.582 L212.982,11.131 L217.749,11.131 L215.365,2.582 ZM202.694,17.296 L200.423,7.371 L198.162,17.296 L196.25,17.296 L193.530,0.590 L195.734,0.590 L197.334,14.152 L199.237,5.178 L201.598,5.178 L203.522,14.174 L205.122,0.590 L207.327,0.590 L204.831,17.296 L202.694,17.296 ZM188.400,12.944 L182.548,12.944 L181.340,17.296 L179.1,17.296 L184.115,0.590 L186.856,0.590 L191.970,17.296 L189.631,17.296 L188.400,12.944 ZM185.480,2.582 L183.96,11.131 L187.863,11.131 L185.480,2.582 ZM174.621,17.296 L169.172,8.926 L167.449,10.762 L167.449,17.296 L165.177,17.296 L165.177,0.590 L167.449,0.590 L167.449,8.20 L174.509,0.590 L177.161,0.590 L170.660,7.416 L177.352,17.296 L174.621,17.296 ZM156.724,42.296 L154.453,42.296 L154.453,34.799 L149.115,25.590 L151.521,25.590 L155.594,32.964 L159.656,25.590 L162.84,25.590 L156.724,34.799 L156.724,42.296 ZM158.515,12.944 L152.662,12.944 L151.454,17.296 L149.115,17.296 L154.229,0.590 L156.970,0.590 L162.84,17.296 L159.746,17.296 L158.515,12.944 ZM155.594,2.582 L153.211,11.131 L157.978,11.131 L155.594,2.582 ZM141.781,17.296 L139.510,17.296 L139.510,9.799 L134.172,0.590 L136.578,0.590 L140.651,7.964 L144.713,0.590 L147.141,0.590 L141.781,9.799 L141.781,17.296 ZM128.629,12.944 L122.777,12.944 L121.568,17.296 L119.230,17.296 L124.343,0.590 L127.85,0.590 L132.199,17.296 L129.860,17.296 L128.629,12.944 ZM125.708,2.582 L123.325,11.131 L128.92,11.131 L125.708,2.582 ZM113.686,37.944 L107.834,37.944 L106.625,42.296 L104.287,42.296 L109.400,25.590 L112.142,25.590 L117.256,42.296 L114.917,42.296 L113.686,37.944 ZM110.766,27.582 L108.382,36.131 L113.149,36.131 L110.766,27.582 ZM113.865,8.893 L107.677,8.893 L107.677,17.296 L105.406,17.296 L105.406,0.590 L107.677,0.590 L107.677,6.991 L113.865,6.991 L113.865,0.590 L116.137,0.590 L116.137,17.296 L113.865,17.296 L113.865,8.893 ZM100.455,37.731 L102.727,42.296 L100.299,42.296 L98.307,38.78 C97.732,36.877 97.216,36.103 96.757,35.756 C96.298,35.409 95.700,35.236 94.961,35.236 L92.802,35.236 L92.802,42.296 L90.530,42.296 L90.530,25.590 L95.185,25.590 C97.20,25.590 98.426,26.4 99.404,26.832 C100.381,27.660 100.869,28.857 100.869,30.424 C100.869,31.528 100.569,32.429 99.969,33.126 C99.368,33.824 98.523,34.251 97.434,34.408 C98.16,34.557 98.512,34.838 98.922,35.252 C99.333,35.666 99.844,36.493 100.455,37.731 ZM97.692,32.651 C98.221,32.166 98.486,31.424 98.486,30.424 C98.486,29.462 98.204,28.725 97.641,28.214 C97.78,27.703 96.259,27.448 95.185,27.448 L92.802,27.448 L92.802,33.378 L95.275,33.378 C96.356,33.378 97.162,33.136 97.692,32.651 ZM81.842,42.621 C79.724,42.621 78.75,41.862 76.896,40.344 C75.718,38.826 75.128,36.698 75.128,33.960 C75.128,31.230 75.725,29.102 76.919,27.576 C78.112,26.51 79.772,25.288 81.898,25.288 C82.599,25.288 83.271,25.387 83.912,25.584 C84.554,25.782 85.173,26.82 85.770,26.485 L85.770,28.802 C85.166,28.227 84.546,27.804 83.912,27.531 C83.278,27.259 82.607,27.123 81.898,27.123 C80.429,27.123 79.326,27.692 78.592,28.829 C77.857,29.967 77.489,31.677 77.489,33.960 C77.489,36.280 77.846,37.998 78.558,39.113 C79.270,40.228 80.365,40.786 81.842,40.786 C82.342,40.786 82.780,40.728 83.157,40.612 C83.534,40.497 83.875,40.316 84.181,40.70 L84.181,35.583 L81.753,35.583 L81.753,33.725 L86.341,33.725 L86.341,40.920 C85.736,41.480 85.56,41.903 84.298,42.190 C83.541,42.477 82.722,42.621 81.842,42.621 ZM76.236,15.394 L79.739,15.394 L79.739,2.492 L76.236,2.492 L76.236,0.590 L85.513,0.590 L85.513,2.492 L82.10,2.492 L82.10,15.394 L85.513,15.394 L85.513,17.296 L76.236,17.296 L76.236,15.394 ZM65.937,42.621 C64.50,42.621 62.647,41.909 61.730,40.484 C60.812,39.59 60.353,36.884 60.353,33.960 C60.353,31.43 60.814,28.869 61.735,27.436 C62.657,26.4 64.57,25.288 65.937,25.288 C67.824,25.288 69.229,26.4 70.150,27.436 C71.71,28.869 71.532,31.43 71.532,33.960 C71.532,36.869 71.71,39.40 70.150,40.472 C69.229,41.905 67.824,42.621 65.937,42.621 ZM68.416,28.701 C67.912,27.649 67.86,27.123 65.937,27.123 C64.796,27.123 63.973,27.649 63.470,28.701 C62.966,29.753 62.715,31.506 62.715,33.960 C62.715,36.407 62.966,38.156 63.470,39.208 C63.973,40.260 64.796,40.786 65.937,40.786 C67.86,40.786 67.912,40.262 68.416,39.214 C68.919,38.166 69.171,36.414 69.171,33.960 C69.171,31.506 68.919,29.753 68.416,28.701 ZM69.205,2.582 L66.228,11.355 L64.516,11.355 L61.528,2.582 L61.528,17.296 L59.447,17.296 L59.447,0.646 L62.468,0.646 L65.355,9.128 L68.265,0.646 L71.297,0.646 L71.297,17.296 L69.205,17.296 L69.205,2.582 ZM52.147,42.296 L49.875,42.296 L49.875,27.492 L44.627,27.492 L44.627,25.590 L57.373,25.590 L57.373,27.492 L52.147,27.492 L52.147,42.296 ZM50.994,17.621 C49.107,17.621 47.705,16.909 46.787,15.484 C45.869,14.59 45.411,11.884 45.411,8.960 C45.411,6.43 45.871,3.869 46.793,2.436 C47.714,1.4 49.114,0.288 50.994,0.288 C52.882,0.288 54.286,1.4 55.207,2.436 C56.129,3.869 56.589,6.43 56.589,8.960 C56.589,11.869 56.129,14.40 55.207,15.472 C54.286,16.905 52.882,17.621 50.994,17.621 ZM53.473,3.701 C52.969,2.649 52.143,2.123 50.994,2.123 C49.853,2.123 49.31,2.649 48.527,3.701 C48.23,4.753 47.772,6.506 47.772,8.960 C47.772,11.407 48.23,13.156 48.527,14.208 C49.31,15.260 49.853,15.786 50.994,15.786 C52.143,15.786 52.969,15.262 53.473,14.214 C53.976,13.166 54.228,11.414 54.228,8.960 C54.228,6.506 53.976,4.753 53.473,3.701 ZM37.204,17.296 L34.933,17.296 L34.933,2.492 L29.685,2.492 L29.685,0.590 L42.430,0.590 L42.430,2.492 L37.204,2.492 L37.204,17.296 ZM24.29,12.944 L18.177,12.944 L16.968,17.296 L14.630,17.296 L19.744,0.590 L22.485,0.590 L27.599,17.296 L25.260,17.296 L24.29,12.944 ZM21.109,2.582 L18.725,11.131 L23.492,11.131 L21.109,2.582 ZM6.356,35.583 L3.738,35.583 L3.738,42.296 L1.477,42.296 L1.477,25.590 L6.356,25.590 C8.221,25.590 9.635,26.13 10.597,26.860 C11.559,27.707 12.40,28.947 12.40,30.581 C12.40,32.229 11.561,33.475 10.603,34.318 C9.644,35.161 8.228,35.583 6.356,35.583 ZM8.807,28.270 C8.225,27.722 7.408,27.448 6.356,27.448 L3.738,27.448 L3.738,33.725 L6.356,33.725 C7.400,33.725 8.215,33.449 8.801,32.897 C9.387,32.345 9.679,31.573 9.679,30.581 C9.679,29.589 9.388,28.818 8.807,28.270 ZM5.875,7.539 L7.61,7.807 C8.628,8.173 9.769,8.747 10.485,9.531 C11.201,10.314 11.559,11.381 11.559,12.731 C11.559,14.320 11.67,15.532 10.82,16.368 C9.98,17.203 7.665,17.621 5.785,17.621 C5.2,17.621 4.215,17.537 3.424,17.369 C2.634,17.201 1.839,16.949 1.41,16.614 L1.41,14.208 C1.899,14.753 2.710,15.152 3.475,15.405 C4.239,15.659 5.9,15.786 5.785,15.786 C6.927,15.786 7.814,15.530 8.449,15.19 C9.83,14.508 9.400,13.794 9.400,12.876 C9.400,12.41 9.181,11.403 8.745,10.963 C8.309,10.523 7.550,10.184 6.468,9.945 L5.259,9.665 C3.708,9.314 2.581,8.785 1.880,8.76 C1.179,7.367 0.828,6.416 0.828,5.223 C0.828,3.731 1.330,2.535 2.333,1.636 C3.337,0.737 4.670,0.288 6.334,0.288 C6.975,0.288 7.650,0.361 8.359,0.506 C9.68,0.652 9.814,0.870 10.597,1.161 L10.597,3.455 C9.911,3.15 9.222,2.683 8.532,2.459 C7.842,2.235 7.147,2.123 6.446,2.123 C5.379,2.123 4.536,2.371 3.917,2.867 C3.297,3.363 2.988,4.33 2.988,4.876 C2.988,5.614 3.191,6.178 3.598,6.565 C4.4,6.953 4.763,7.278 5.875,7.539 ZM18.20,31.991 L24.208,31.991 L24.208,25.590 L26.480,25.590 L26.480,42.296 L24.208,42.296 L24.208,33.893 L18.20,33.893 L18.20,42.296 L15.749,42.296 L15.749,25.590 L18.20,25.590 L18.20,31.991 ZM36.52,25.288 C37.939,25.288 39.343,26.4 40.264,27.436 C41.186,28.869 41.646,31.43 41.646,33.960 C41.646,36.869 41.186,39.40 40.264,40.472 C39.343,41.905 37.939,42.621 36.52,42.621 C34.164,42.621 32.762,41.909 31.844,40.484 C30.927,39.59 30.468,36.884 30.468,33.960 C30.468,31.43 30.928,28.869 31.850,27.436 C32.771,26.4 34.172,25.288 36.52,25.288 ZM33.584,39.208 C34.88,40.260 34.910,40.786 36.52,40.786 C37.200,40.786 38.27,40.262 38.530,39.214 C39.34,38.166 39.285,36.414 39.285,33.960 C39.285,31.506 39.34,29.753 38.530,28.701 C38.27,27.649 37.200,27.123 36.52,27.123 C34.910,27.123 34.88,27.649 33.584,28.701 C33.81,29.753 32.829,31.506 32.829,33.960 C32.829,36.407 33.81,38.156 33.584,39.208 ZM130.140,26.860 C131.102,27.707 131.583,28.947 131.583,30.581 C131.583,32.229 131.104,33.475 130.145,34.318 C129.187,35.161 127.771,35.583 125.899,35.583 L123.280,35.583 L123.280,42.296 L121.20,42.296 L121.20,25.590 L125.899,25.590 C127.764,25.590 129.177,26.13 130.140,26.860 ZM123.280,33.725 L125.899,33.725 C126.943,33.725 127.758,33.449 128.344,32.897 C128.929,32.345 129.222,31.573 129.222,30.581 C129.222,29.589 128.931,28.818 128.349,28.270 C127.767,27.722 126.951,27.448 125.899,27.448 L123.280,27.448 L123.280,33.725 ZM137.563,31.991 L143.751,31.991 L143.751,25.590 L146.22,25.590 L146.22,42.296 L143.751,42.296 L143.751,33.893 L137.563,33.893 L137.563,42.296 L135.291,42.296 L135.291,25.590 L137.563,25.590 L137.563,31.991 Z"/>
</svg>